<?xml version="1.0" standalone="no"?><!-- Generator: Gravit.io --><svg xmlns="http://www.w3.org/2000/svg" xmlns:xlink="http://www.w3.org/1999/xlink" style="isolation:isolate" viewBox="559 356 496 494.945" width="496" height="494.945"><defs><clipPath id="_clipPath_cJAUFBPquRh8pYeZ05KIO5BngCz4u1FR"><rect x="559" y="356" width="496" height="494.945"/></clipPath></defs><g clip-path="url(#_clipPath_cJAUFBPquRh8pYeZ05KIO5BngCz4u1FR)"><g><path d=" M 671 690.945 L 671 738.945 L 703 738.945 L 703 722.945 L 687 722.945 L 687 690.945 L 671 690.945 Z " fill="rgb(55,71,79)"/><path d=" M 679 642.945 C 658.754 642.945 638.977 650.008 623.313 662.824 L 633.449 675.199 C 644.184 666.414 657.297 660.992 671 659.449 L 671 674.945 L 687 674.945 L 687 659.414 C 720.313 663.121 746.824 689.625 750.527 722.945 L 735 722.945 L 735 738.945 L 750.496 738.945 C 748.953 752.656 743.527 765.762 734.742 776.488 L 747.129 786.633 C 759.945 770.969 767 751.191 767 730.945 C 767 682.426 727.52 642.945 679 642.945 L 679 642.945 Z " fill="rgb(55,71,79)"/><path d=" M 687 802.441 L 687 786.945 L 671 786.945 L 671 802.473 C 637.688 798.77 611.176 772.266 607.473 738.945 L 623 738.945 L 623 722.945 L 607.504 722.945 C 609.047 709.23 614.473 696.129 623.258 685.398 L 610.871 675.258 C 598.055 690.922 591 710.695 591 730.945 C 591 779.465 630.48 818.945 679 818.945 C 699.246 818.945 719.023 811.879 734.688 799.063 L 724.551 786.688 C 713.816 795.473 700.711 800.895 687 802.441 L 687 802.441 Z " fill="rgb(55,71,79)"/><path d=" M 1055 458.945 L 1007 458.945 L 1007 418.945 L 967 418.945 L 967 356 L 935 377.328 L 903 356 L 903 418.945 L 887 418.945 C 859.137 418.945 834.961 434.887 823 458.113 C 811.039 434.887 786.863 418.945 759 418.945 L 639 418.945 L 639 458.945 L 591 458.945 L 591 649.633 C 571.207 671.039 559 699.559 559 730.945 C 559 797.113 612.832 850.945 679 850.945 C 718.137 850.945 752.855 832.023 774.777 802.945 L 871 802.945 L 871 810.945 C 871 833 888.945 850.945 911 850.945 C 933.055 850.945 951 833 951 810.945 L 951 802.945 L 1055 802.945 L 1055 458.945 Z  M 919 385.887 L 935 396.559 L 951 385.887 L 951 418.945 L 919 418.945 L 919 385.887 Z  M 887 434.945 L 991 434.945 L 991 738.945 L 951 738.945 L 951 552.52 L 931.281 522.945 L 975 522.945 L 975 506.945 L 920.617 506.945 L 911 492.52 L 901.383 506.945 L 863 506.945 L 863 522.945 L 890.719 522.945 L 871 552.52 L 871 738.945 L 831 738.945 L 831 490.945 C 831 460.07 856.121 434.945 887 434.945 Z  M 903 666.945 L 903 762.945 L 887 762.945 L 887 562.945 L 903 562.945 L 903 650.945 L 919 650.945 L 919 562.945 L 935 562.945 L 935 762.945 L 919 762.945 L 919 666.945 L 903 666.945 Z  M 911 521.367 L 928.055 546.945 L 893.953 546.945 L 911 521.367 Z  M 759 434.945 C 789.879 434.945 815 460.07 815 490.945 L 815 738.945 L 798.594 738.945 C 798.77 736.289 799 733.648 799 730.945 C 799 700.191 787.273 672.199 768.191 650.945 L 783 650.945 L 783 570.945 L 671 570.945 L 671 611.352 C 665.574 611.711 660.207 612.305 655 613.367 L 655 434.945 L 759 434.945 Z  M 767 634.945 L 750.695 634.945 C 732.672 621.449 710.801 612.93 687 611.352 L 687 586.945 L 767 586.945 L 767 634.945 Z  M 639 474.945 L 639 617.945 C 627.406 622.063 616.648 627.895 607 635.168 L 607 474.945 L 639 474.945 Z  M 679 834.945 C 621.656 834.945 575 788.289 575 730.945 C 575 673.602 621.656 626.945 679 626.945 C 736.344 626.945 783 673.602 783 730.945 C 783 788.289 736.344 834.945 679 834.945 Z  M 785.047 786.945 C 790.313 777.008 794.273 766.281 796.574 754.945 L 871 754.945 L 871 786.945 L 785.047 786.945 Z  M 911 834.945 C 897.77 834.945 887 824.176 887 810.945 L 887 778.945 L 935 778.945 L 935 810.945 C 935 824.176 924.23 834.945 911 834.945 Z  M 1039 786.945 L 951 786.945 L 951 754.945 L 1007 754.945 L 1007 474.945 L 1039 474.945 L 1039 786.945 Z " fill="rgb(55,71,79)"/><path d=" M 671 474.945 L 687 474.945 L 687 490.945 L 671 490.945 L 671 474.945 Z " fill="rgb(55,71,79)"/><path d=" M 703 474.945 L 783 474.945 L 783 490.945 L 703 490.945 L 703 474.945 Z " fill="rgb(55,71,79)"/><path d=" M 671 506.945 L 687 506.945 L 687 522.945 L 671 522.945 L 671 506.945 Z " fill="rgb(55,71,79)"/><path d=" M 703 506.945 L 783 506.945 L 783 522.945 L 703 522.945 L 703 506.945 Z " fill="rgb(55,71,79)"/><path d=" M 671 538.945 L 783 538.945 L 783 554.945 L 671 554.945 L 671 538.945 Z " fill="rgb(55,71,79)"/><path d=" M 863 474.945 L 975 474.945 L 975 490.945 L 863 490.945 L 863 474.945 Z " fill="rgb(55,71,79)"/></g></g></svg>