<?xml version="1.0" standalone="no"?><!-- Generator: Gravit.io --><svg xmlns="http://www.w3.org/2000/svg" xmlns:xlink="http://www.w3.org/1999/xlink" style="isolation:isolate" viewBox="0 0 400 400" width="400" height="400"><defs><clipPath id="_clipPath_91uMTv1lnJ0PToP0jt3fFHe5lF3pVtGD"><rect width="400" height="400"/></clipPath></defs><g clip-path="url(#_clipPath_91uMTv1lnJ0PToP0jt3fFHe5lF3pVtGD)"><clipPath id="_clipPath_mjdkZdAnXhowFzeQL9NyvkFnOMWgl7iK"><rect x="0" y="45.805" width="400" height="308.39" transform="matrix(1,0,0,1,0,0)" fill="rgb(255,255,255)"/></clipPath><g clip-path="url(#_clipPath_mjdkZdAnXhowFzeQL9NyvkFnOMWgl7iK)"><g><g><path d=" M 360.585 280.075 L 381.739 141.774 L 327.318 197.102 L 312.139 100.596 L 242.872 183.708 L 200.001 64.07 L 157.131 183.708 L 87.863 100.596 L 72.685 197.102 L 18.263 141.774 L 39.417 280.075 L 39.417 317.133 L 360.585 317.133 L 360.585 280.075 Z " fill="rgb(185,185,185)"/><path d=" M 360.585 280.075 L 381.739 141.774 L 327.318 197.102 L 312.139 100.596 L 242.872 183.708 L 200.001 64.07 L 200.001 317.133 L 360.585 317.133 L 360.585 280.075 Z " fill="rgb(162,162,162)"/><rect x="39.418" y="280.077" width="321.166" height="74.118" transform="matrix(1,0,0,1,0,0)" fill="rgb(139,139,139)"/><g><rect x="200.001" y="280.077" width="160.587" height="74.118" transform="matrix(1,0,0,1,0,0)" fill="rgb(116,116,116)"/><circle vector-effect="non-scaling-stroke" cx="18.26338826204063" cy="141.77192444486974" r="18.263388262040557" fill="rgb(209,209,209)"/></g><circle vector-effect="non-scaling-stroke" cx="87.8598898040419" cy="100.59199565622447" r="18.263388262040564" fill="rgb(185,185,185)"/><circle vector-effect="non-scaling-stroke" cx="200.00117188186653" cy="64.06834415045392" r="18.263388262040564" fill="rgb(162,162,162)"/><circle vector-effect="non-scaling-stroke" cx="381.73661173795927" cy="141.77192444486974" r="18.263388262040564" fill="rgb(70,70,70)"/><circle vector-effect="non-scaling-stroke" cx="312.1424539596911" cy="100.59199565622447" r="18.263388262040564" fill="rgb(116,116,116)"/></g></g></g></g></svg>