<?xml version="1.0" standalone="no"?><!-- Generator: Gravit.io --><svg xmlns="http://www.w3.org/2000/svg" xmlns:xlink="http://www.w3.org/1999/xlink" style="isolation:isolate" viewBox="871 695 511.997 394.737" width="511.997" height="394.737"><defs><clipPath id="_clipPath_RMAHspCbcf74KaBaV8G1RJUgciTIh00A"><rect x="871" y="695" width="511.997" height="394.737"/></clipPath></defs><g clip-path="url(#_clipPath_RMAHspCbcf74KaBaV8G1RJUgciTIh00A)"><g><path d=" M 1332.546 994.864 L 1359.623 817.84 L 1289.964 888.659 L 1270.536 765.132 L 1181.874 871.515 L 1127 718.379 L 1072.126 871.515 L 983.464 765.132 L 964.036 888.659 L 894.377 817.84 L 921.454 994.864 L 921.454 1042.298 L 1332.546 1042.298 L 1332.546 994.864 Z " fill="rgb(185,185,185)"/><path d=" M 1332.546 994.864 L 1359.623 817.84 L 1289.964 888.659 L 1270.536 765.132 L 1181.874 871.515 L 1127 718.379 L 1127 1042.298 L 1332.546 1042.298 L 1332.546 994.864 Z " fill="rgb(162,162,162)"/><rect x="921.455" y="994.867" width="411.09" height="94.87" transform="matrix(1,0,0,1,0,0)" fill="rgb(139,139,139)"/><g><rect x="1127" y="994.867" width="205.55" height="94.87" transform="matrix(1,0,0,1,0,0)" fill="rgb(116,116,116)"/><circle vector-effect="non-scaling-stroke" cx="894.377" cy="817.837" r="23.376999999999953" fill="rgb(209,209,209)"/></g><circle vector-effect="non-scaling-stroke" cx="983.46" cy="765.127" r="23.376999999999953" fill="rgb(185,185,185)"/><circle vector-effect="non-scaling-stroke" cx="1127" cy="718.377" r="23.376999999999953" fill="rgb(162,162,162)"/><circle vector-effect="non-scaling-stroke" cx="1359.62" cy="817.837" r="23.376999999999953" fill="rgb(70,70,70)"/><circle vector-effect="non-scaling-stroke" cx="1270.54" cy="765.127" r="23.376999999999953" fill="rgb(116,116,116)"/></g></g></svg>